<?xml version="1.0" encoding="utf-8"?>
<!-- Generator: Adobe Illustrator 24.1.2, SVG Export Plug-In . SVG Version: 6.00 Build 0)  -->
<svg version="1.1" id="Layer_1" xmlns="http://www.w3.org/2000/svg" xmlns:xlink="http://www.w3.org/1999/xlink" x="0px" y="0px"
	 viewBox="0 0 38.5 35" style="enable-background:new 0 0 38.5 35;" xml:space="preserve">
<style type="text/css">
	.st0{fill:#231F20;}
</style>
<g>
	<circle class="st0" cx="22.7" cy="7.2" r="1.4"/>
	<circle class="st0" cx="19.4" cy="8.3" r="1.4"/>
	<circle class="st0" cx="25.7" cy="9.4" r="1.4"/>
	<path class="st0" d="M36.3,21l-0.4-1.6c-0.3-1.3-1.1-2.3-2.3-2.8c-0.3-0.1-0.7-0.2-1.1-0.3l0,0l-1.2-2.7c-0.2-0.5-0.7-0.7-1.2-0.6
		l-2.4,0.4c0.1-0.2,0.2-0.5,0.2-0.8c0-0.8-0.6-1.4-1.4-1.4c-0.8,0-1.4,0.6-1.4,1.4c0,0.5,0.3,1,0.7,1.3l-3.1,0.8
		c-0.5,0.1-0.8,0.6-0.8,1.1l0.2,2.9c-0.3,0.2-0.6,0.5-0.9,0.8c-0.8,1-1.1,2.3-0.8,3.6l0.4,1.6l0,0c0.7,2.5,2.8,4.1,5.4,4.4
		c0.9,0.1,1.8,0,2.7-0.2l1.3-0.3l0,0l0,0l0,0l0,0h0.1l0.8-0.2C32.6,28,34,27.2,35,26C36.3,24.5,36.7,22.8,36.3,21z M30.4,25.8
		L29.6,26l0,0l0,0l0,0l0,0h-0.1l-1,0.2c-1.9,0.5-4.3-0.2-4.8-2.3l-0.3-1.4c-0.1-0.6,0-1.1,0.3-1.5c0.4-0.5,1-0.8,1.8-1l4.7-1.1
		c0.8-0.2,1.5-0.1,2,0.1c0.5,0.2,0.8,0.6,1,1.2l0.3,1.4C34,24,31.9,25.4,30.4,25.8z"/>
	<path class="st0" d="M17.8,12.6c0.6-0.2,1.1-0.7,1.1-1.4c0-0.8-0.6-1.4-1.4-1.4c-0.4,0-0.8,0.2-1.1,0.5l-1.2-2
		c-0.3-0.4-0.8-0.6-1.3-0.4l-2.7,1c-0.3-0.2-0.7-0.4-1-0.6C9,7.8,7.7,7.9,6.6,8.6L5.2,9.5l0,0c-2.9,1.8-3.6,5.7-1.6,9l1.2,2
		c0.8,1.3,2.1,2.4,3.5,3c0.9,0.4,1.8,0.5,2.7,0.4c0.8-0.1,1.7-0.3,2.4-0.8l1.4-0.9c1.1-0.7,1.8-1.8,2-3.1c0-0.4,0-0.7,0-1.1l0,0
		l2.2-2c0.4-0.3,0.5-0.9,0.2-1.3L17.8,12.6z M13.9,18.6c-0.1,0.6-0.3,1-0.8,1.3l-1.2,0.7c-2.2,1.2-4.2-0.4-5-1.7l-1-1.8
		c-1-1.7-1.1-4.1,0.8-5.3l1.2-0.7c0.5-0.3,1-0.3,1.5-0.1c0.6,0.2,1.1,0.7,1.5,1.4l2.5,4.2C13.8,17.3,14,18,13.9,18.6z"/>
</g>
</svg>
