<?xml version="1.0" encoding="utf-8"?>
<!-- Generator: Adobe Illustrator 24.1.2, SVG Export Plug-In . SVG Version: 6.00 Build 0)  -->
<svg version="1.1" id="Layer_1" xmlns="http://www.w3.org/2000/svg" xmlns:xlink="http://www.w3.org/1999/xlink" x="0px" y="0px"
	 viewBox="0 0 33.8 30.7" style="enable-background:new 0 0 33.8 30.7;" xml:space="preserve">
<style type="text/css">
	.st0{fill:#FBB040;}
	.st1{fill:#E88F2E;}
	.st2{fill:#231F20;}
</style>
<g>
	<g>
		<path class="st0" d="M19.2,22.6c0,0-0.5,0.7-1.4,1.2s-2-0.6-2-0.6h-0.2c0,0-0.4,1.1-0.7,1.6c-0.3,0.5-1.7,0.9-2.4,0.9
			s-1.8-2.2-1.8-2.2l0.1,0.2c0,0,0,1.1-0.6,2c-0.8,1.2-2.4,0-2.4,0s-2.4-4.9-2.7-6.2C4.8,18.2,5,15,5,15s0-2.8,1.7-2.7
			c1.7,0.1,1.3-0.2,1.7,0.1S8.3,8.7,11,8.9c0.9,0.1,2,0.5,2,0.5l0.2-1.8c0,0,1.7-2.5,3.5-2.4S19,6.3,19,6.3s0.6-1.1,1.8-1.4
			S24.5,6,24.5,6s4.8,6.5,4.8,7.7s-0.8,9.6-2.1,10.3s-5.4,1.5-5.8,1.1s-1.4-2-1.4-2L19.2,22.6z"/>
		<path class="st0" d="M20.5,21.5c0,0,1,0.7,1.7,0.7s1.6-1,1.6-1l0.3-5l-0.5-6.1"/>
	</g>
	<polygon class="st1" points="5.8,21.6 9.2,20.3 13.4,19.1 18.5,16.2 24,14.8 24,18.5 28.6,19.4 27.4,23.6 24.5,24.8 21.4,25.1 
		20.2,23.9 19.5,21.8 19,23.2 17.5,23.9 15.5,23.7 14.9,24.8 12.6,25.7 11.2,24.6 10.2,25.7 8.8,26.1 7.4,25.6 	"/>
	<path class="st2" d="M24.9,5.5c0-0.1-0.1-0.1-0.2-0.2c-0.5-0.3-2.8-1.6-4.2-1.2c-0.7,0.2-1.3,0.7-1.6,1.1c-0.4-0.3-1.1-0.6-2.2-0.7
		c-2.2-0.2-4,2.5-4.1,2.6c-0.1,0.1-0.1,0.2-0.1,0.3l-0.1,1.1c-0.4-0.1-1-0.2-1.5-0.3C8.5,8,8,10.5,7.8,11.5l0,0
		c-0.1,0-0.4,0.1-1.2,0c-0.5,0-1,0.1-1.4,0.5c-0.9,0.9-1,2.7-1,2.8c0,0.1-0.3,3.3,0.1,4.7c0.3,1.4,2.6,6.1,2.7,6.4
		c0,0.1,0.1,0.2,0.2,0.2c0.1,0.1,0.9,0.6,1.8,0.6c0.1,0,0.3,0,0.4,0c0.5-0.1,0.8-0.4,1.1-0.8c0.2-0.2,0.3-0.5,0.4-0.7
		c0.4,0.6,1,1,1.5,1c0.6,0,2.4-0.3,3-1.2c0.2-0.3,0.4-0.7,0.5-1c0.6,0.4,1.4,0.7,2.1,0.3c0.5-0.2,0.9-0.6,1.3-0.9c0,0,0,0,0,0.1
		c0.2,0.3,1,1.6,1.5,2c0.9,0.8,5.6-0.5,6.6-1.1c1.8-1,2.4-10.8,2.4-10.9C29.9,12.3,26.4,7.5,24.9,5.5z M26.9,23.4
		c-1.1,0.6-4.4,1.3-5.1,1.2c-0.3-0.3-0.9-1.2-1.2-1.7c-0.1-0.1-0.1-0.2-0.2-0.2c0.1-0.1,0.1-0.2,0.1-0.4c0.4,0.2,1.1,0.6,1.7,0.6
		c0.9,0,1.9-1,2-1.2c0.1-0.1,0.2-0.2,0.2-0.4l0.3-5.1l-0.5-6.1c0-0.3-0.3-0.6-0.7-0.6c-0.3,0-0.6,0.3-0.6,0.7l0.5,6L23.1,21
		c-0.3,0.3-0.7,0.6-1,0.6s-1-0.3-1.3-0.6c-0.2-0.1-0.5-0.1-0.7,0c-0.3-1.4-0.9-3.8-1-4.5c-0.1-0.7,0.1-3.5,0.2-5.2
		c0-0.3-0.2-0.6-0.6-0.7c-0.3,0-0.6,0.2-0.7,0.6c0,0.5-0.4,4.4-0.2,5.5c0.1,0.9,0.9,4.2,1.2,5.3c-0.4,0.3-1,0.9-1.6,1.2
		c-0.4,0.2-1-0.3-1.2-0.5l-2-4.1L14,13.1c0-0.3-0.3-0.6-0.6-0.6c-0.4,0-0.6,0.3-0.6,0.6c0,0.8-0.2,4.8,0.2,5.9l0,0
		c0.3,0.9,1.5,3.3,1.9,4.1c-0.1,0.4-0.4,1-0.6,1.3c-0.1,0.2-1.2,0.6-1.8,0.6c-0.3-0.1-0.9-1-1.3-1.9L9.8,20l-0.1-3.8
		c0-0.3-0.3-0.6-0.6-0.6l0,0c-0.3,0-0.6,0.3-0.6,0.6c0,0.3-0.1,3.1,0.1,4.1c0.2,0.9,1.2,2.8,1.6,3.4c0,0.3-0.1,1-0.5,1.5
		c-0.1,0.1-0.2,0.2-0.3,0.2c-0.4,0.1-0.9-0.2-1.1-0.3c-0.7-1.5-2.3-5-2.6-6c-0.2-1-0.1-3.4,0-4.3c0-0.5,0.2-1.6,0.6-2
		c0.1-0.1,0.3-0.2,0.4-0.1c0.7,0,1.1,0,1.3,0c0.2,0.1,0.4,0.2,0.6,0.1c0.4-0.1,0.5-0.5,0.6-1.1c0.2-1.6,0.6-2.5,1.8-2.4
		c0.8,0.1,1.9,0.4,1.9,0.4c0.2,0.1,0.4,0,0.5-0.1c0.2-0.1,0.3-0.3,0.3-0.5l0.2-1.7c0.5-0.7,1.7-2.1,2.9-2c1.4,0.1,1.7,0.7,1.7,0.7
		c0.1,0.2,0.3,0.4,0.5,0.4c0.3,0,0.5-0.1,0.6-0.3c0,0,0.5-0.9,1.4-1.1c0.6-0.2,2.1,0.5,3.1,1c2.2,3,4.6,6.5,4.6,7.2
		C28.6,15.3,27.7,22.7,26.9,23.4z"/>
	<path class="st1" d="M6.4,21.2"/>
</g>
</svg>
