<?xml version="1.0" encoding="utf-8"?>
<!-- Generator: Adobe Illustrator 24.1.2, SVG Export Plug-In . SVG Version: 6.00 Build 0)  -->
<svg version="1.1" id="Layer_1" xmlns="http://www.w3.org/2000/svg" xmlns:xlink="http://www.w3.org/1999/xlink" x="0px" y="0px"
	 viewBox="0 0 37.8 34.3" style="enable-background:new 0 0 37.8 34.3;" xml:space="preserve">
<style type="text/css">
	.st0{fill:#8DDFFF;}
	.st1{fill:#231F20;}
</style>
<g>
	<path class="st0" d="M27.4,17.7c1,1.4,2.4,0.3,2.6-0.8c0.1-0.7-2.3-6.8-3.7-7.8c-1.7-1.2-3.7-0.9-4.4-0.5c-0.1,0-1.1,0.3-1,0.3
		l-0.3-0.3c0,0,1-1.8,0.6-3.3c-0.5-1.9-2.6-3.2-4.7-2.5c-2.3,0.8-2.5,3.4-1.9,4.6c0.7,1.6,2.3,2.4,2.3,2.4l-3.8,3.6L10,12.5
		c0,0-1.7-0.6-2.1,0.9c-0.4,1.6,1.4,2.3,1.4,2.3s3.2,1.2,4,1.3s1.3-0.6,1.3-0.6l2.8-2.6l1.2,2.8c-0.4,1.2-0.9,2.4-1.7,3.4
		c-1.5,2-1.4,4-1.5,6.4c0,0.9,0.1,2.1-0.3,2.8c-0.3,0.6-1.3,1-0.6,1.8c0.5,0.5,1.1,0.8,1.8,0.7c0.5-0.1,1.4-0.2,1.8-0.4
		c1.4-0.6,0.9-2.7,1.1-3.9c0.1-1,0.1-2.7,0.5-3.7c0.5-1,1-2.2,1.7-3c0.1-0.1,0.2-0.2,0.3-0.3c0.5,1.3,1.4,3.5,1.6,4.1
		c0.9,2,2.2,3.5,1.3,5.7c-0.8,1.8,2,1.7,3,1.5c1-0.1,1.5-0.4,1.5-1.5c0-1.7-2.4-7.5-2.8-8.8l-1.7-4.5c-0.1-0.7-0.4-1.3-0.6-1.9
		c-0.3-0.9-0.5-1.9-0.8-2.9c-0.1-0.5,1-0.5,1.4-0.4c0.8,0.3,1.3,1.4,1.5,2.2C25.9,14,26.7,16.6,27.4,17.7z"/>
	<path class="st1" d="M26.3,32.5c-0.9,0-1.9-0.2-2.4-0.8c-0.2-0.3-0.4-0.9-0.1-1.7c0.6-1.4,0.1-2.5-0.7-3.9
		c-0.2-0.4-0.4-0.8-0.6-1.3c-0.2-0.4-0.8-1.9-1.3-3.1c-0.4,0.6-0.7,1.3-1,1.9L20,24.1c-0.3,0.5-0.3,1.5-0.4,2.3c0,0.4,0,0.8-0.1,1.2
		c0,0.3,0,0.6,0,0.9c0,1.2,0,2.9-1.4,3.5c-0.5,0.2-1.6,0.4-2,0.5c-0.9,0.1-1.8-0.2-2.3-0.9c-0.8-1-0.1-1.8,0.3-2.2
		c0.1-0.1,0.2-0.2,0.3-0.3c0.2-0.4,0.2-1.2,0.2-1.9c0-0.2,0-0.5,0-0.7v-0.7c0.1-2.1,0.2-4.1,1.6-6.1c0.7-0.9,1.1-2,1.5-3.1L17,14.9
		l-2,2c-0.3,0.4-1,1-1.9,0.8c-0.8-0.1-3.8-1.3-4.1-1.4c-0.8-0.3-2.2-1.3-1.8-3c0.2-0.6,0.5-1,1-1.3c0.9-0.5,1.9-0.1,2-0.1l2.7,0.8
		l2.9-2.8c-0.6-0.4-1.4-1.2-1.9-2.2c-0.5-0.9-0.4-2.3,0-3.4c0.4-1,1.2-1.8,2.3-2.1c1.1-0.4,2.3-0.3,3.3,0.3c1,0.5,1.8,1.5,2.1,2.6
		c0.3,1.1,0,2.2-0.2,2.9h0.1c0.8-0.4,3.1-0.8,5,0.6c1.5,1.1,4.1,7.3,4,8.4c-0.1,0.9-0.9,1.8-1.8,2c-0.8,0.2-1.5-0.2-2-0.9l0,0
		c-0.7-1-1.3-3.2-1.5-3.9c-0.3-0.9-0.7-1.6-1.1-1.8c-0.1,0-0.3,0-0.5,0c0,0.2,0.1,0.3,0.1,0.5c0.2,0.7,0.3,1.4,0.6,2l0.1,0.4
		c0.2,0.5,0.4,1,0.5,1.6l1.7,4.4c0.1,0.3,0.3,0.8,0.5,1.4c1.2,3.1,2.3,6.3,2.3,7.7c0,1.7-1,2-2,2.1C27.2,32.4,26.8,32.5,26.3,32.5z
		 M21.5,19.8c0.1,0,0.1,0,0.2,0c0.2,0,0.4,0.2,0.4,0.4c0.5,1.3,1.4,3.5,1.6,4c0.2,0.4,0.4,0.8,0.6,1.2c0.8,1.5,1.6,3,0.7,5
		c0,0.1-0.1,0.3-0.1,0.4c0.2,0.3,1.3,0.4,2.4,0.3c0.9-0.1,1-0.2,1-0.9c0-1.2-1.5-5.3-2.3-7.2c-0.2-0.6-0.4-1.1-0.5-1.4l-1.7-4.5V17
		c-0.1-0.4-0.2-0.9-0.4-1.4l-0.1-0.4c-0.3-0.7-0.4-1.4-0.6-2.1c-0.1-0.3-0.1-0.5-0.2-0.8s0-0.7,0.3-0.9c0.5-0.4,1.5-0.4,2-0.3
		c1,0.4,1.6,1.6,1.9,2.6c0.4,1.2,0.9,2.9,1.4,3.6c0.3,0.5,0.6,0.4,0.7,0.4c0.4-0.1,0.7-0.5,0.8-0.9c0-0.7-2.2-6.4-3.4-7.2
		c-1.5-1.1-3.3-0.7-3.8-0.5c0,0-0.3,0.1-0.5,0.2c-0.2,0.1-0.4,0.1-0.5,0.2h-0.3l-0.2-0.1l-0.2-0.1l0,0l0,0C20.4,9,20,8.7,20.3,8.2
		l0,0c0,0,0.9-1.5,0.5-2.8c-0.2-0.8-0.8-1.5-1.5-1.8c-0.7-0.4-1.6-0.4-2.4-0.2c-0.7,0.2-1.3,0.7-1.5,1.4c-0.4,0.8-0.3,1.8,0,2.3
		c0.7,1.4,2,2.1,2,2.1c0.2,0.1,0.3,0.3,0.3,0.5s0,0.4-0.2,0.5l-3.8,3.6c-0.2,0.2-0.4,0.2-0.6,0.1L10,13c-0.2-0.1-0.7-0.2-1,0
		c-0.1,0.1-0.3,0.2-0.3,0.5c-0.3,1,0.9,1.5,1,1.5c1.3,0.5,3.3,1.2,3.9,1.3c0.4,0.1,0.6-0.3,0.6-0.4l0.1-0.1l2.8-2.6
		c0.1-0.1,0.4-0.2,0.6-0.2s0.4,0.2,0.4,0.4l1.2,2.8c0.1,0.1,0.1,0.3,0,0.5c-0.5,1.2-1,2.5-1.8,3.6c-1.2,1.6-1.3,3.3-1.4,5.4v0.7
		c0,0.2,0,0.4,0,0.6c0,0.8,0,1.8-0.4,2.5c-0.1,0.2-0.3,0.4-0.5,0.6c-0.1,0.1-0.3,0.3-0.3,0.4l0,0c0,0,0,0.1,0.1,0.1
		c0.4,0.5,0.9,0.5,1.2,0.5c0.5-0.1,1.3-0.2,1.7-0.4c0.6-0.3,0.6-1.2,0.7-2.3c0-0.4,0-0.8,0.1-1.1c0-0.3,0.1-0.7,0.1-1.1
		c0.1-0.9,0.1-2,0.5-2.8l0.2-0.5c0.4-0.9,0.9-1.9,1.6-2.7C21.2,20.1,21.4,19.9,21.5,19.8C21.2,19.9,21.3,19.8,21.5,19.8z"/>
</g>
</svg>
