<?xml version="1.0" encoding="utf-8"?>
<!-- Generator: Adobe Illustrator 24.1.2, SVG Export Plug-In . SVG Version: 6.00 Build 0)  -->
<svg version="1.1" id="Layer_1" xmlns="http://www.w3.org/2000/svg" xmlns:xlink="http://www.w3.org/1999/xlink" x="0px" y="0px"
	 viewBox="0 0 47.7 43.3" style="enable-background:new 0 0 47.7 43.3;" xml:space="preserve">
<style type="text/css">
	.st0{fill:#3FC44B;}
	.st1{fill:#D1D3D4;}
	.st2{fill:#1A991A;}
	.st3{fill:#939598;}
	.st4{fill:none;stroke:#FFFFFF;stroke-miterlimit:10;}
	.st5{fill:#231F20;}
	.st6{fill:url(#SVGID_1_);}
</style>
<path class="st0" d="M37.2,19.8l-4.8,19.8c0,0-2.5,1.4-5.9,0.6c-3.4-0.8-5-3.2-5-3.2l4.8-19.8"/>
<path class="st1" d="M37.2,19.8c-0.3,1.3-3,1.8-6,1c-3-0.7-5.2-2.4-4.9-3.7c0.3-1.3,3.2-2.6,6.2-1.9C35.5,16.1,37.5,18.5,37.2,19.8z
	"/>
<path class="st2" d="M31.8,39.5c0,0-2.2,0.7-3.1,0.5l4.4-18.2c0.5,0.1,2.1,0.1,3-0.3L31.8,39.5z"/>
<path class="st3" d="M34.4,16.1c-0.2,0.8-1.2,1.2-2.3,0.9c-1.1-0.3-1.8-1.1-1.6-1.8c0.2-0.8,1.3-1.6,2.4-1.4
	C34,14,34.6,15.3,34.4,16.1z"/>
<path class="st4" d="M31.1,19.3"/>
<path class="st5" d="M36.5,17c-0.4-0.4-0.9-0.8-1.5-1.2c0-1.1-0.8-2.3-2-2.6c-0.7-0.2-1.4,0-2,0.4c-0.4,0.3-0.8,0.6-1,1
	c-2.2,0.2-4.1,1.3-4.4,2.5l-4.8,19.8c0,0.2,0,0.3,0.1,0.5c0.1,0.1,1.8,2.6,5.4,3.5c0.8,0.2,1.6,0.3,2.3,0.3c2.4,0,4-0.9,4.1-0.9
	c0.2-0.1,0.3-0.2,0.3-0.4l4.8-19.8C38,19.1,37.5,18,36.5,17z M31.1,15.2c0.1-0.5,0.9-1.1,1.7-0.9c0.7,0.2,1.2,1.1,1,1.6
	c-0.1,0.5-0.8,0.8-1.6,0.6C31.4,16.3,30.9,15.7,31.1,15.2z M31.8,39.2c-0.7,0.3-2.7,1-5.2,0.4s-4-2.2-4.5-2.8l4.3-17.7
	c0.9,1,2.5,1.8,4.6,2.3c1,0.2,2,0.4,2.9,0.4c0.5,0,1,0,1.4-0.1c0.3-0.1,0.6-0.1,0.8-0.2L31.8,39.2z M36.6,19.7
	c-0.1,0.4-0.7,0.7-1.5,0.8c-1.1,0.2-2.4,0.1-3.8-0.2c-3-0.7-4.6-2.2-4.4-2.9c0.1-0.6,1.4-1.3,3-1.5c0.1,0.3,0.2,0.6,0.5,0.8
	c0.4,0.4,1,0.8,1.6,0.9c0.3,0.1,0.6,0.1,0.8,0.1c0.7,0,1.4-0.3,1.8-0.7c0.4,0.3,0.7,0.5,1.1,0.9C36.4,18.6,36.6,19.4,36.6,19.7
	L36.6,19.7z"/>
<linearGradient id="SVGID_1_" gradientUnits="userSpaceOnUse" x1="-119.1741" y1="-122.7859" x2="-95.3663" y2="-122.7859" gradientTransform="matrix(0.9721 0.2347 0.2347 -0.9721 152.3001 -83.4843)">
	<stop  offset="0" style="stop-color:#F7941E;stop-opacity:0"/>
	<stop  offset="0.7276" style="stop-color:#F7941E"/>
</linearGradient>
<path class="st6" d="M30.4,14.2L17.3,1.8c-0.4-0.4-1-0.3-1.2-0.2c-1.3,0.5-7.4,1.8-8.4,6c-1,4.1,3,8.5,3.7,9.6
	c0.3,0.5,0.9,0.5,1.3,0.4L30,15.2C30.5,15.1,30.7,14.5,30.4,14.2z"/>
</svg>
